<svg xmlns="http://www.w3.org/2000/svg" width="32" height="32" viewBox="0 0 32 32">
  <path d="M 25.601562 5.5625 C 23.703125 5.5625 22.722656 6.25 21.859375 6.859375 C 21.101562 7.390625 20.503906 7.8125 19.199219 7.8125 C 17.894531 7.8125 17.296875 7.390625 16.539062 6.859375 C 15.675781 6.25 14.695312 5.5625 12.800781 5.5625 C 10.902344 5.5625 9.925781 6.25 9.0625 6.859375 C 8.300781 7.390625 7.703125 7.8125 6.398438 7.8125 C 5.097656 7.8125 4.496094 7.390625 3.738281 6.859375 C 2.875 6.25 1.898438 5.5625 0 5.5625 L 0 7.4375 C 1.304688 7.4375 1.902344 7.859375 2.660156 8.390625 C 3.523438 9 4.503906 9.6875 6.398438 9.6875 C 8.296875 9.6875 9.277344 9 10.140625 8.390625 C 10.898438 7.859375 11.496094 7.4375 12.800781 7.4375 C 14.101562 7.4375 14.703125 7.859375 15.460938 8.390625 C 16.324219 9 17.304688 9.6875 19.199219 9.6875 C 21.097656 9.6875 22.074219 9 22.9375 8.390625 C 23.699219 7.859375 24.296875 7.4375 25.601562 7.4375 C 26.902344 7.4375 27.503906 7.859375 28.261719 8.390625 C 29.125 9 30.101562 9.6875 32 9.6875 L 32 7.8125 C 30.695312 7.8125 30.097656 7.390625 29.339844 6.859375 C 28.476562 6.25 27.496094 5.5625 25.601562 5.5625 Z M 25.601562 5.5625 "/>
  <path d="M 25.601562 11.03125 C 23.703125 11.03125 22.722656 11.71875 21.859375 12.324219 C 21.101562 12.859375 20.503906 13.28125 19.199219 13.28125 C 17.894531 13.28125 17.296875 12.859375 16.539062 12.324219 C 15.675781 11.71875 14.695312 11.03125 12.800781 11.03125 C 10.902344 11.03125 9.925781 11.71875 9.0625 12.324219 C 8.300781 12.859375 7.703125 13.28125 6.398438 13.28125 C 5.097656 13.28125 4.496094 12.859375 3.738281 12.324219 C 2.875 11.71875 1.898438 11.03125 0 11.03125 L 0 12.90625 C 1.304688 12.90625 1.902344 13.328125 2.660156 13.859375 C 3.523438 14.46875 4.503906 15.15625 6.398438 15.15625 C 8.296875 15.15625 9.277344 14.46875 10.140625 13.859375 C 10.898438 13.328125 11.496094 12.90625 12.800781 12.90625 C 14.101562 12.90625 14.703125 13.328125 15.460938 13.859375 C 16.324219 14.46875 17.304688 15.15625 19.199219 15.15625 C 21.097656 15.15625 22.074219 14.46875 22.9375 13.859375 C 23.699219 13.328125 24.296875 12.90625 25.601562 12.90625 C 26.902344 12.90625 27.503906 13.328125 28.261719 13.859375 C 29.125 14.46875 30.101562 15.15625 32 15.15625 L 32 13.28125 C 30.695312 13.28125 30.097656 12.859375 29.339844 12.324219 C 28.476562 11.71875 27.496094 11.03125 25.601562 11.03125 Z M 25.601562 11.03125 "/>
  <path d="M 25.601562 16.558594 C 23.703125 16.558594 22.722656 17.25 21.859375 17.855469 C 21.101562 18.390625 20.503906 18.808594 19.199219 18.808594 C 17.894531 18.808594 17.296875 18.390625 16.539062 17.855469 C 15.675781 17.25 14.695312 16.558594 12.800781 16.558594 C 10.902344 16.558594 9.925781 17.25 9.0625 17.855469 C 8.300781 18.390625 7.703125 18.808594 6.398438 18.808594 C 5.097656 18.808594 4.496094 18.390625 3.738281 17.855469 C 2.875 17.25 1.898438 16.558594 0 16.558594 L 0 18.433594 C 1.304688 18.433594 1.902344 18.855469 2.660156 19.390625 C 3.523438 19.996094 4.503906 20.683594 6.398438 20.683594 C 8.296875 20.683594 9.277344 19.996094 10.140625 19.390625 C 10.898438 18.855469 11.496094 18.433594 12.800781 18.433594 C 14.101562 18.433594 14.703125 18.855469 15.460938 19.390625 C 16.324219 19.996094 17.304688 20.683594 19.199219 20.683594 C 21.097656 20.683594 22.074219 19.996094 22.9375 19.390625 C 23.699219 18.855469 24.296875 18.433594 25.601562 18.433594 C 26.902344 18.433594 27.503906 18.855469 28.261719 19.390625 C 29.125 19.996094 30.101562 20.683594 32 20.683594 L 32 18.808594 C 30.695312 18.808594 30.097656 18.390625 29.339844 17.855469 C 28.476562 17.25 27.496094 16.558594 25.601562 16.558594 Z M 25.601562 16.558594 "/>
  <path d="M 25.601562 22.089844 C 23.703125 22.089844 22.722656 22.777344 21.859375 23.386719 C 21.101562 23.917969 20.503906 24.339844 19.199219 24.339844 C 17.894531 24.339844 17.296875 23.917969 16.539062 23.386719 C 15.675781 22.777344 14.695312 22.089844 12.800781 22.089844 C 10.902344 22.089844 9.925781 22.777344 9.0625 23.386719 C 8.300781 23.917969 7.703125 24.339844 6.398438 24.339844 C 5.097656 24.339844 4.496094 23.917969 3.738281 23.386719 C 2.875 22.777344 1.898438 22.089844 0 22.089844 L 0 23.964844 C 1.304688 23.964844 1.902344 24.386719 2.660156 24.921875 C 3.523438 25.527344 4.503906 26.214844 6.398438 26.214844 C 8.296875 26.214844 9.277344 25.527344 10.140625 24.921875 C 10.898438 24.386719 11.496094 23.964844 12.800781 23.964844 C 14.101562 23.964844 14.703125 24.386719 15.460938 24.921875 C 16.324219 25.527344 17.304688 26.214844 19.199219 26.214844 C 21.097656 26.214844 22.074219 25.527344 22.9375 24.921875 C 23.699219 24.386719 24.296875 23.964844 25.601562 23.964844 C 26.902344 23.964844 27.503906 24.386719 28.261719 24.921875 C 29.125 25.527344 30.101562 26.214844 32 26.214844 L 32 24.339844 C 30.695312 24.339844 30.097656 23.917969 29.339844 23.386719 C 28.476562 22.777344 27.496094 22.089844 25.601562 22.089844 Z M 25.601562 22.089844 "/>
</svg>
